HIERARCHY
ROOT joint_Root
{
	OFFSET 0.0 0.0 0.0
	CHANNELS 6 Xposition Yposition Zposition Zrotation Xrotation Yrotation 
	JOINT Hips
	{
		OFFSET -17.1583 93.1646 452.98
		CHANNELS 6 Xposition Yposition Zposition Zrotation Xrotation Yrotation 
		JOINT Spine
		{
			OFFSET 15.7357 0.0 0.0
			CHANNELS 6 Xposition Yposition Zposition Zrotation Xrotation Yrotation 
			JOINT Chest
			{
				OFFSET 8.98455 -0.406207 0.0
				CHANNELS 6 Xposition Yposition Zposition Zrotation Xrotation Yrotation 
				JOINT Neck
				{
					OFFSET 16.3773 0.0 0.0
					CHANNELS 6 Xposition Yposition Zposition Zrotation Xrotation Yrotation 
					JOINT Head
					{
						OFFSET 6.45672 0.0 0.0
						CHANNELS 6 Xposition Yposition Zposition Zrotation Xrotation Yrotation 
						End Site
						{
							OFFSET 0.0 0.0 0.0
						}
					}
				}
				JOINT Shoulder_L
				{
					OFFSET 12.9942 -0.242716 4.98039
					CHANNELS 6 Xposition Yposition Zposition Zrotation Xrotation Yrotation 
					JOINT UpperArm_L
					{
						OFFSET 5.34809 0.0 0.0
						CHANNELS 6 Xposition Yposition Zposition Zrotation Xrotation Yrotation 
						JOINT LowerArm_L
						{
							OFFSET 24.3286 1.87007e-05 0.0
							CHANNELS 6 Xposition Yposition Zposition Zrotation Xrotation Yrotation 
							JOINT Hand_L
							{
								OFFSET 22.2916 0.0 0.0
								CHANNELS 6 Xposition Yposition Zposition Zrotation Xrotation Yrotation 
								End Site
								{
									OFFSET 0.0 0.0 0.0
								}
							}
						}
					}
				}
				JOINT Shoulder_R
				{
					OFFSET 12.9945 -0.242716 -4.98039
					CHANNELS 6 Xposition Yposition Zposition Zrotation Xrotation Yrotation 
					JOINT UpperArm_R
					{
						OFFSET -5.34813 0.0 0.0
						CHANNELS 6 Xposition Yposition Zposition Zrotation Xrotation Yrotation 
						JOINT LowerArm_R
						{
							OFFSET -24.3289 0.000322201 0.0
							CHANNELS 6 Xposition Yposition Zposition Zrotation Xrotation Yrotation 
							JOINT Hand_R
							{
								OFFSET -22.2915 -0.000108084 0.0
								CHANNELS 6 Xposition Yposition Zposition Zrotation Xrotation Yrotation 
								End Site
								{
									OFFSET 0.0 0.0 0.0
								}
							}
						}
					}
				}
			}
		}
		JOINT UpperLeg_L
		{
			OFFSET -2.19248 -6.46944 0.0
			CHANNELS 6 Xposition Yposition Zposition Zrotation Xrotation Yrotation 
			JOINT LowerLeg_L
			{
				OFFSET 39.0811 0.0 -1.23785e-05
				CHANNELS 6 Xposition Yposition Zposition Zrotation Xrotation Yrotation 
				JOINT Foot_L
				{
					OFFSET 40.9854 0.0 -1.26872e-05
					CHANNELS 6 Xposition Yposition Zposition Zrotation Xrotation Yrotation 
					JOINT Toes_L
					{
						OFFSET 11.7543 0.0 0.0
						CHANNELS 6 Xposition Yposition Zposition Zrotation Xrotation Yrotation 
						End Site
						{
							OFFSET 0.0 0.0 0.0
						}
					}
				}
			}
		}
		JOINT UpperLeg_R
		{
			OFFSET -2.19251 6.46944 0.0
			CHANNELS 6 Xposition Yposition Zposition Zrotation Xrotation Yrotation 
			JOINT LowerLeg_R
			{
				OFFSET -39.0811 -0.00228153 -0.0401928
				CHANNELS 6 Xposition Yposition Zposition Zrotation Xrotation Yrotation 
				JOINT Foot_R
				{
					OFFSET -40.9854 0.0 0.0
					CHANNELS 6 Xposition Yposition Zposition Zrotation Xrotation Yrotation 
					JOINT Toes_R
					{
						OFFSET -11.7543 0.0 0.0
						CHANNELS 6 Xposition Yposition Zposition Zrotation Xrotation Yrotation 
						End Site
						{
							OFFSET 0.0 0.0 0.0
						}
					}
				}
			}
		}
	}
}
MOTION
Frames:	6
Frame Time:	0.0333333
0.000000 0.000000 0.000000 0.000000 0.000000 -0.000000 -0.034248 92.948300 2.849210 88.332200 2.264310 -0.432388 15.735700 0.000005 -0.000001 61.725600 87.866600 -56.667400 8.984550 -0.406207 -0.000000 -3.878080 -2.533060 10.036500 16.377300 -0.000001 -0.000001 -1.583740 5.984690 -0.180006 6.456720 -0.000001 -0.000000 5.292980 6.964840 18.872600 12.994200 -0.242716 4.980390 -89.264900 -1.484920 -63.659100 5.348090 -0.000007 -0.000001 -49.294000 -59.686300 -103.378000 24.328600 0.000019 0.000005 56.279300 33.869000 -69.600400 22.291600 -0.000001 0.000005 71.593600 4.602160 14.850000 12.994500 -0.242716 -4.980390 89.347300 2.238710 -73.740500 -5.348130 -0.000001 -0.000004 -65.656000 8.801140 -5.406300 -24.328900 0.000322 -0.000009 0.577623 2.366640 -13.744800 -22.291500 -0.000108 -0.000004 6.802900 5.211040 2.441340 -2.192480 -6.469440 -0.000000 -173.831000 -5.963120 -0.025541 39.081100 -0.000007 -0.000012 0.027339 -0.108119 14.190500 40.985400 -0.000006 -0.000013 -0.371470 13.969700 -70.040200 11.754300 -0.000000 0.000003 -0.001244 0.186440 -9.013620 -2.192510 6.469440 -0.000001 176.528000 6.979460 -177.097000 -39.081100 -0.002282 -0.040193 -0.000372 0.022354 9.427340 -40.985400 0.000008 0.000006 -8.183470 5.631600 -67.134600 -11.754300 -0.000006 -0.000006 -0.011023 0.278799 -5.244380
0.000000 0.000000 0.000000 0.000000 0.000000 -0.000000 -0.013331 92.948100 2.840110 88.351600 2.123770 -0.298763 15.735700 0.000005 -0.000001 61.210000 87.855300 -56.060400 8.984550 -0.406207 -0.000000 -3.871530 -2.586610 10.217600 16.377300 -0.000001 -0.000001 -1.442230 6.147020 -0.494839 6.456720 -0.000001 -0.000000 5.349400 6.959440 18.532800 12.994200 -0.242716 4.980390 -89.263600 -1.482570 -63.582200 5.348090 -0.000007 -0.000001 -44.118300 -60.084900 -99.765800 24.328600 0.000019 0.000005 54.359300 36.308500 -66.992800 22.291600 -0.000001 0.000005 67.338000 4.704480 13.015700 12.994500 -0.242716 -4.980390 89.328000 2.304820 -73.740000 -5.348130 -0.000001 -0.000004 -65.904300 9.307710 -6.226880 -24.328900 0.000322 -0.000009 0.576055 2.325630 -13.940200 -22.291500 -0.000108 -0.000004 6.750690 5.216040 2.313880 -2.192480 -6.469440 -0.000000 -173.852000 -6.036510 0.141353 39.081100 -0.000007 -0.000012 0.028659 -0.113471 14.174800 40.985400 -0.000006 -0.000013 -0.366827 13.928000 -70.076400 11.754300 -0.000000 0.000003 -0.001552 0.190588 -8.844980 -2.192510 6.469440 -0.000001 176.478000 6.887480 -177.001000 -39.081100 -0.002282 -0.040193 -0.000369 0.022236 9.468510 -40.985400 0.000008 0.000006 -8.114410 5.669350 -67.157300 -11.754300 -0.000006 -0.000006 -0.011202 0.280075 -5.192130
0.000000 0.000000 0.000000 0.000000 0.000000 -0.000000 -0.016982 92.943700 2.831950 88.384700 1.988330 -0.250601 15.735700 0.000005 -0.000001 60.775600 87.858600 -55.516800 8.984550 -0.406207 -0.000000 -3.888050 -2.623610 10.434700 16.377300 -0.000001 -0.000001 -1.378100 6.242030 -0.680467 6.456720 -0.000001 -0.000000 5.296720 6.955650 18.186200 12.994200 -0.242716 4.980390 -89.298600 -1.410480 -63.555600 5.348090 -0.000007 -0.000001 -41.716900 -59.831500 -97.589500 24.328600 0.000019 0.000005 44.472000 36.603000 -58.720900 22.291600 -0.000001 0.000005 58.316300 4.828270 10.749200 12.994500 -0.242716 -4.980390 89.296200 2.408320 -73.705100 -5.348130 -0.000001 -0.000004 -66.049100 9.981260 -6.925660 -24.328900 0.000322 -0.000009 0.569481 2.262610 -14.156200 -22.291500 -0.000108 -0.000004 6.627750 5.220030 2.211350 -2.192480 -6.469440 -0.000000 -173.862000 -6.224140 0.226876 39.081100 -0.000007 -0.000012 0.029462 -0.116958 14.139100 40.985400 -0.000006 -0.000013 -0.364713 14.011200 -70.006800 11.754300 -0.000000 0.000003 -0.001424 0.188893 -8.913910 -2.192510 6.469440 -0.000001 176.458000 6.773750 -177.065000 -39.081100 -0.002282 -0.040193 0.000429 0.017115 9.651080 -40.985400 0.000008 0.000006 -7.967870 5.674200 -67.277600 -11.754300 -0.000006 -0.000006 -0.011327 0.280969 -5.155520
0.000000 0.000000 0.000000 0.000000 0.000000 -0.000000 -0.034110 92.939600 2.834730 88.418200 1.824710 -0.111806 15.735700 0.000005 -0.000001 60.484000 87.802700 -55.111400 8.984550 -0.406207 -0.000000 -3.794080 -2.704840 10.661800 16.377300 -0.000001 -0.000001 -1.413410 6.205170 -0.548757 6.456720 -0.000001 -0.000000 5.212350 6.993600 17.909600 12.994200 -0.242716 4.980390 -89.364300 -1.282000 -63.622900 5.348090 -0.000007 -0.000001 -41.128600 -59.328900 -96.426500 24.328600 0.000019 0.000005 35.317900 37.923900 -49.052800 22.291600 -0.000001 0.000005 54.042300 4.800120 11.319600 12.994500 -0.242716 -4.980390 89.293400 2.416900 -73.698600 -5.348130 -0.000001 -0.000004 -66.237900 10.659600 -7.486180 -24.328900 0.000322 -0.000009 0.582990 2.283810 -14.349200 -22.291500 -0.000108 -0.000004 6.496740 5.224100 2.107700 -2.192480 -6.469440 -0.000000 -173.866000 -6.382210 0.427513 39.081100 -0.000007 -0.000012 0.030090 -0.119903 14.087800 40.985400 -0.000006 -0.000013 -0.381027 14.007600 -69.977300 11.754300 -0.000000 0.000003 -0.001414 0.188749 -8.919730 -2.192510 6.469440 -0.000001 176.423000 6.685240 -177.009000 -39.081100 -0.002282 -0.040193 0.000908 0.014070 9.802330 -40.985400 0.000008 0.000006 -7.797540 5.748670 -67.410600 -11.754300 -0.000006 -0.000006 -0.011618 0.283020 -5.071540
0.000000 0.000000 0.000000 0.000000 0.000000 -0.000000 -0.069778 92.917300 2.847570 88.448700 1.675700 0.012243 15.735700 0.000005 -0.000001 60.032300 87.728500 -54.551500 8.984550 -0.406207 -0.000000 -3.674140 -2.814170 10.877300 16.377300 -0.000001 -0.000001 -1.627090 6.047330 -0.188676 6.456720 -0.000001 -0.000000 5.204690 6.949510 17.889100 12.994200 -0.242716 4.980390 -89.384800 -1.247650 -63.750900 5.348090 -0.000007 -0.000001 -41.321300 -58.929100 -95.032800 24.328600 0.000019 0.000005 24.858200 36.779300 -37.721600 22.291600 -0.000001 0.000005 51.965300 4.751950 12.218800 12.994500 -0.242716 -4.980390 89.304100 2.379580 -73.694000 -5.348130 -0.000001 -0.000004 -66.426600 11.200300 -7.867650 -24.328900 0.000322 -0.000009 0.581352 2.252100 -14.503200 -22.291500 -0.000108 -0.000004 6.355620 5.227000 2.033030 -2.192480 -6.469440 -0.000000 -173.847000 -6.537540 0.524509 39.081100 -0.000007 -0.000012 0.029394 -0.115998 14.219900 40.985400 -0.000006 -0.000013 -0.379471 14.062100 -70.047900 11.754300 -0.000000 0.000003 -0.001432 0.188988 -8.910040 -2.192510 6.469440 -0.000001 176.453000 6.569790 -177.084000 -39.081100 -0.002282 -0.040193 0.003059 0.001555 10.195100 -40.985400 0.000008 0.000006 -7.304160 5.694870 -67.735600 -11.754300 -0.000006 -0.000006 -0.011227 0.280254 -5.184790
0.000000 0.000000 0.000000 0.000000 0.000000 -0.000000 -0.132479 92.906400 2.856620 88.412300 1.547430 0.009510 15.735700 0.000005 -0.000001 58.873400 87.692500 -53.282400 8.984550 -0.406207 -0.000000 -3.649480 -2.940270 11.094400 16.377300 -0.000001 -0.000001 -1.815690 5.687000 0.418371 6.456720 -0.000001 -0.000000 5.134510 6.817810 18.027500 12.994200 -0.242716 4.980390 -89.348600 -1.319340 -63.718200 5.348090 -0.000007 -0.000001 -41.144300 -58.618600 -92.638600 24.328600 0.000019 0.000005 14.830700 32.017200 -26.525000 22.291600 -0.000001 0.000005 47.616700 4.718610 12.840100 12.994500 -0.242716 -4.980390 89.281400 2.444810 -73.616000 -5.348130 -0.000001 -0.000004 -66.491700 11.457600 -8.046750 -24.328900 0.000322 -0.000009 0.532922 2.059020 -14.541600 -22.291500 -0.000108 -0.000004 6.270180 5.228090 2.004860 -2.192480 -6.469440 -0.000000 -173.756000 -6.699310 0.504529 39.081100 -0.000007 -0.000012 0.028668 -0.112463 14.300900 40.985400 -0.000006 -0.000013 -0.412554 14.095500 -70.051600 11.754300 -0.000000 0.000003 -0.001241 0.186401 -9.015190 -2.192510 6.469440 -0.000001 176.572000 6.373250 -177.185000 -39.081100 -0.002282 -0.040193 0.004377 -0.005679 10.362800 -40.985400 0.000008 0.000006 -7.061860 5.613620 -67.873900 -11.754300 -0.000006 -0.000006 -0.011145 0.279668 -5.208780
